<svg width="1162" height="347" viewBox="0 0 1162 347" fill="none" xmlns="http://www.w3.org/2000/svg">
<path d="M507.095 142.987V291.318H466.391V274.238C455.835 287.106 440.518 293.539 420.474 293.539C406.615 293.539 394.115 290.404 382.911 284.166C371.707 277.929 362.932 269.013 356.553 257.42C350.173 245.826 347 232.437 347 217.153C347 201.869 350.173 188.479 356.553 176.886C362.932 165.292 371.707 156.409 382.911 150.139C394.115 143.901 406.647 140.766 420.474 140.766C439.223 140.766 453.892 146.742 464.481 158.695V142.987H507.095ZM454.604 247.067C461.696 239.621 465.258 229.661 465.258 217.153C465.258 204.645 461.696 194.684 454.604 187.238C447.513 179.792 438.575 176.069 427.825 176.069C417.074 176.069 407.878 179.792 400.786 187.238C393.694 194.684 390.132 204.645 390.132 217.153C390.132 229.661 393.694 239.621 400.786 247.067C407.878 254.513 416.912 258.236 427.825 258.236C438.737 258.236 447.48 254.513 454.604 247.067Z" fill="#5441B5"/>
<path d="M607.77 146.285C616.416 142.628 626.39 140.766 637.691 140.766V180.478C632.963 180.119 629.757 179.923 628.138 179.923C615.93 179.923 606.378 183.385 599.448 190.275C592.518 197.166 589.054 207.519 589.054 221.3V291.319H546.439V142.987H587.143V162.549C592.227 155.364 599.124 149.976 607.77 146.285Z" fill="#5441B5"/>
<path d="M726.223 233.122L705.725 253.533V291.318H663.111V86.7499H705.725V202.554L768.028 143.019H818.835L757.633 205.886L824.307 291.351H772.658L726.223 233.187V233.122Z" fill="#5441B5"/>
<path d="M843.444 285.799C838.328 280.672 835.802 274.205 835.802 266.498C835.802 258.791 838.36 252.194 843.444 247.328C848.528 242.462 854.81 240.013 862.29 240.013C869.771 240.013 876.053 242.462 881.137 247.328C886.221 252.194 888.779 258.595 888.779 266.498C888.779 274.401 886.221 280.672 881.137 285.799C876.053 290.926 869.738 293.506 862.29 293.506C854.843 293.506 848.528 290.926 843.444 285.799Z" fill="#B364CA"/>
<path d="M931.685 280.149C922.391 271.234 917.76 258.595 917.76 242.234V86.7499H960.375V239.752C960.375 245.989 961.961 250.823 965.167 254.219C968.341 257.615 972.874 259.314 978.703 259.314C980.905 259.314 983.107 259.052 985.406 258.497C987.673 257.942 989.454 257.289 990.749 256.57L992.659 289.914C985.568 292.298 978.185 293.506 970.543 293.506C953.963 293.506 941.043 289.065 931.749 280.149H931.685Z" fill="#5441B5"/>
<path d="M1161.76 142.987V266.499C1161.76 293.703 1154.92 313.918 1141.26 327.144C1127.59 340.371 1107.74 347 1081.71 347C1067.85 347 1054.8 345.237 1042.49 341.775C1030.19 338.28 1019.86 333.218 1011.47 326.622L1028.41 295.76C1034.59 300.887 1042.17 304.937 1051.08 307.876C1060.01 310.815 1069.02 312.285 1078.11 312.285C1092.33 312.285 1102.69 308.986 1109.27 302.357C1115.84 295.727 1119.11 285.636 1119.11 272.018V267.054C1113.64 272.573 1107.19 276.786 1099.71 279.725C1092.23 282.664 1084.23 284.134 1075.65 284.134C1056.35 284.134 1041.04 278.582 1029.74 267.446C1018.44 256.342 1012.8 239.654 1012.8 217.414V142.987H1055.42V211.078C1055.42 235.147 1065.32 247.198 1085.21 247.198C1095.41 247.198 1103.6 243.834 1109.78 237.139C1115.97 230.444 1119.08 220.451 1119.08 207.225V142.987H1161.69H1161.76Z" fill="#5441B5"/>
<path d="M303.612 88.8953V303.625H294.359C264.629 303.625 240.467 279.219 240.467 249.121V88.8953H303.612Z" fill="#5441B5"/>
<path d="M106.52 103.24L106.52 249.121C106.52 279.189 82.3877 303.625 52.6281 303.625H43.3754L43.3754 157.743C43.3754 127.675 67.5079 103.24 97.2675 103.24H106.52Z" fill="#5441B5"/>
<path d="M108.842 195.212L220.867 81.9151C241.89 60.6538 276.039 60.6331 297.082 81.9151L303.625 88.532L153.492 240.369L108.842 195.212Z" fill="#F29CF7"/>
<path d="M153.334 240.381L99.3725 185.807C78.3498 164.545 78.3293 130.009 99.3725 108.727L105.915 102.11L197.984 195.224L153.334 240.381Z" fill="#B364CA"/>
</svg>
